<?xml version="1.0" standalone="no"?>
<!DOCTYPE svg PUBLIC "-//W3C//DTD SVG 20010904//EN"
 "http://www.w3.org/TR/2001/REC-SVG-20010904/DTD/svg10.dtd">
<svg version="1.0" xmlns="http://www.w3.org/2000/svg"
 width="225.000000pt" height="225.000000pt" viewBox="0 0 225.000000 225.000000"
 preserveAspectRatio="xMidYMid meet">

<g transform="translate(0.000000,225.000000) scale(0.100000,-0.100000)"
fill="#000000" stroke="none">
<path d="M575 1725 c-88 -47 -163 -86 -168 -87 -5 -2 -107 -358 -107 -375 0
-2 18 6 41 17 23 12 42 20 44 18 8 -9 35 -79 46 -115 13 -44 16 -47 43 -37 23
9 20 21 -17 67 -18 23 -41 54 -50 69 -17 27 -17 28 13 43 31 16 37 29 20 40
-26 16 -5 57 83 165 l93 115 44 0 44 0 16 56 c27 89 31 109 23 108 -5 0 -80
-38 -168 -84z"/>
<path d="M588 1578 c-95 -113 -138 -170 -138 -183 0 -7 21 -32 47 -55 l48 -42
0 -91 c0 -102 23 -169 72 -207 20 -15 22 -20 9 -20 -48 0 -97 -48 -110 -108
l-8 -32 61 0 c51 0 61 3 66 21 5 15 14 19 33 17 23 -3 27 -8 30 -42 4 -43 -15
-76 -93 -166 -60 -69 -95 -142 -95 -198 l0 -43 157 3 156 3 3 48 3 47 -79 0
c-44 0 -80 4 -80 8 0 4 23 35 51 67 72 85 91 128 97 210 3 61 1 74 -20 104
-19 29 -34 41 -66 58 -2 1 14 18 37 38 22 20 51 59 64 86 l25 49 22 -45 c30
-61 63 -70 100 -27 21 25 29 29 39 19 10 -10 18 -5 42 22 27 33 29 34 47 18
26 -24 36 -21 66 13 25 30 26 30 51 14 l25 -16 -20 -28 c-27 -38 -27 -80 0
-80 36 0 72 46 68 85 -2 27 3 39 20 51 21 14 25 14 57 -6 l35 -22 -20 -28
c-11 -15 -20 -40 -20 -54 0 -35 32 -35 66 0 21 20 25 33 22 60 -4 31 0 37 29
56 46 27 34 36 -12 9 l-37 -21 -29 21 c-34 24 -35 31 -13 65 12 17 22 23 36
18 15 -5 19 -2 16 13 -9 49 -92 6 -104 -55 -3 -17 -17 -34 -36 -45 -28 -16
-33 -16 -55 -2 -33 22 -37 39 -17 69 12 19 22 25 35 21 24 -8 27 23 3 32 -37
14 -100 -50 -92 -96 3 -19 -27 -71 -42 -71 -14 0 -32 38 -33 72 -3 42 -29 58
-64 38 -26 -14 -44 -51 -57 -111 -3 -15 -15 -37 -26 -50 -19 -23 -21 -23 -34
-6 -8 10 -19 47 -25 83 l-12 65 35 41 c55 64 87 180 66 242 -8 24 -18 36 -30
36 -52 0 -98 -117 -107 -275 -5 -82 -11 -110 -33 -155 -53 -104 -119 -142
-174 -99 -104 82 -73 358 53 472 23 20 49 37 59 37 43 0 69 -67 52 -130 -12
-45 -30 -53 -30 -15 0 28 -15 33 -24 9 -8 -20 21 -67 37 -61 21 6 41 61 41
114 1 56 -25 105 -60 112 -10 2 -37 19 -60 37 -22 19 -50 34 -62 34 -12 0 -37
-20 -64 -52z m387 -92 c9 -44 -20 -145 -52 -182 l-24 -29 5 66 c5 67 40 179
56 179 5 0 12 -15 15 -34z m97 -312 c-32 -52 -47 -57 -38 -12 8 38 33 69 51
62 10 -4 7 -16 -13 -50z m188 -83 c-10 -20 -30 -29 -30 -13 0 4 8 18 17 32 19
27 30 12 13 -19z m160 0 c-10 -20 -30 -29 -30 -13 0 4 8 18 17 32 19 27 30 12
13 -19z"/>
<path d="M1847 1482 c-20 -22 -45 -115 -53 -201 -4 -42 -12 -71 -22 -78 -24
-20 -31 -16 -38 21 -8 47 -38 74 -59 56 -48 -40 -58 -114 -21 -157 29 -32 49
-26 76 23 9 16 26 30 38 32 21 3 22 0 22 -81 0 -47 3 -92 6 -101 5 -13 -2 -16
-38 -16 l-45 0 -56 -188 c-32 -104 -57 -205 -57 -225 l0 -37 100 0 100 0 0
-50 0 -50 60 0 60 0 0 50 c0 38 4 50 15 50 11 0 15 12 15 50 0 38 -4 50 -15
50 -13 0 -15 26 -15 174 0 145 -2 175 -15 180 -10 3 -15 19 -15 44 0 21 -8 54
-19 74 l-18 37 39 31 c52 42 42 50 -14 10 l-43 -32 -3 44 c-2 33 4 59 24 99
23 44 28 68 28 128 1 78 -9 95 -37 63z m9 -137 c-19 -51 -21 -17 -3 57 11 51
12 51 15 18 1 -19 -4 -53 -12 -75z m-144 -110 c13 -28 6 -40 -17 -32 -17 7
-21 57 -5 57 6 0 16 -11 22 -25z m3 -65 c8 -12 -21 -43 -33 -36 -7 4 -12 18
-12 31 0 18 4 22 20 18 11 -3 22 -9 25 -13z m154 -115 c16 -65 15 -77 -11 -73
-21 3 -23 9 -26 72 -3 59 -1 68 11 57 8 -6 20 -31 26 -56z m-73 -422 c-2 -2
-17 -3 -33 -1 l-30 3 31 107 31 107 3 -106 c1 -58 1 -108 -2 -110z"/>
<path d="M952 965 c-23 -10 -39 -28 -53 -61 -19 -41 -20 -62 -17 -214 3 -152
5 -171 24 -197 61 -83 213 -84 264 -1 19 31 20 46 18 225 l-3 193 -32 32 c-30
29 -39 33 -100 35 -45 2 -79 -2 -101 -12z m118 -104 c13 -25 13 -271 0 -305
-10 -28 -38 -34 -58 -14 -13 13 -18 291 -6 322 9 22 51 20 64 -3z"/>
<path d="M1319 965 c-32 -17 -54 -50 -63 -93 l-8 -32 61 0 c51 0 61 3 66 21 5
15 14 19 33 17 23 -3 27 -8 30 -42 4 -43 -15 -76 -93 -166 -60 -69 -95 -142
-95 -198 l0 -43 158 3 157 3 3 48 3 47 -80 0 c-45 0 -81 4 -81 8 0 4 23 35 51
67 72 85 91 128 97 210 3 61 1 74 -20 105 -13 19 -35 40 -48 47 -33 17 -139
16 -171 -2z"/>
</g>
</svg>
